<svg width="257" height="110" viewBox="0 0 257 110" fill="none" xmlns="http://www.w3.org/2000/svg">
<rect width="257" height="110" fill="white"/>
<path d="M71.5185 52.277H68.1946C68.0668 51.5668 67.8288 50.9418 67.4808 50.402C67.1328 49.8622 66.7067 49.4041 66.2024 49.0277C65.6982 48.6513 65.1335 48.3672 64.5085 48.1754C63.8906 47.9837 63.2337 47.8878 62.5376 47.8878C61.2805 47.8878 60.1548 48.2038 59.1605 48.8359C58.1733 49.468 57.392 50.3949 56.8168 51.6165C56.2486 52.8381 55.9645 54.3295 55.9645 56.0909C55.9645 57.8665 56.2486 59.3651 56.8168 60.5866C57.392 61.8082 58.1768 62.7315 59.1712 63.3565C60.1655 63.9815 61.2841 64.294 62.527 64.294C63.2159 64.294 63.8693 64.2017 64.4872 64.017C65.1122 63.8253 65.6768 63.5447 66.1811 63.1754C66.6854 62.8061 67.1115 62.3551 67.4595 61.8224C67.8146 61.2827 68.0597 60.6648 68.1946 59.9688L71.5185 59.9794C71.3409 61.0518 70.9964 62.0391 70.4851 62.9411C69.9808 63.8359 69.331 64.6101 68.5355 65.2635C67.7472 65.9098 66.8452 66.4105 65.8295 66.7656C64.8139 67.1207 63.706 67.2983 62.5057 67.2983C60.6165 67.2983 58.9332 66.8509 57.456 65.956C55.9787 65.054 54.8139 63.7649 53.9616 62.0888C53.1165 60.4126 52.6939 58.4134 52.6939 56.0909C52.6939 53.7614 53.12 51.7621 53.9723 50.093C54.8246 48.4169 55.9893 47.1314 57.4666 46.2365C58.9439 45.3345 60.6236 44.8835 62.5057 44.8835C63.6634 44.8835 64.7429 45.0504 65.7443 45.3842C66.7528 45.7109 67.6584 46.1939 68.4609 46.8331C69.2635 47.4652 69.9276 48.2393 70.4531 49.1555C70.9787 50.0646 71.3338 51.1051 71.5185 52.277Z" fill="#004225"/>
<path d="M82.417 60.6665L86.5003 55.4165L90.0003 60.6665L93.5003 55.4165L96.417 60.0832H101.667" stroke="#004225" stroke-width="2.5" stroke-miterlimit="2" stroke-linecap="round" stroke-linejoin="round"/>
<path d="M101.666 53.0832C101.666 49.5394 98.7935 46.6665 95.2497 46.6665C93.0795 46.6665 91.1609 47.7439 89.9997 49.3929C88.8384 47.7439 86.9199 46.6665 84.7497 46.6665C81.2058 46.6665 78.333 49.5394 78.333 53.0832C78.333 59.4998 85.9163 65.3332 89.9997 66.6901C90.6959 66.4587 91.4939 66.0972 92.3388 65.6248" stroke="#004225" stroke-width="2.5" stroke-linecap="round" stroke-linejoin="round"/>
<path d="M108.141 67V50.6364H111.22V53.2358H111.391C111.689 52.3551 112.214 51.6626 112.967 51.1584C113.727 50.647 114.587 50.3913 115.545 50.3913C115.744 50.3913 115.979 50.3984 116.249 50.4126C116.526 50.4268 116.742 50.4446 116.898 50.4659V53.5128C116.771 53.4773 116.543 53.4382 116.217 53.3956C115.89 53.3459 115.563 53.321 115.237 53.321C114.484 53.321 113.813 53.4808 113.223 53.8004C112.641 54.1129 112.179 54.5497 111.838 55.1108C111.497 55.6648 111.327 56.2969 111.327 57.0071V67H108.141ZM126.122 67.3303C124.509 67.3303 123.121 66.9858 121.956 66.2969C120.798 65.6009 119.904 64.6243 119.271 63.3672C118.646 62.103 118.334 60.6222 118.334 58.9247C118.334 57.2486 118.646 55.7713 119.271 54.4929C119.904 53.2145 120.784 52.2166 121.914 51.4993C123.05 50.782 124.378 50.4233 125.898 50.4233C126.821 50.4233 127.716 50.576 128.583 50.8814C129.449 51.1868 130.227 51.6662 130.916 52.3196C131.605 52.973 132.148 53.8217 132.546 54.8658C132.943 55.9027 133.142 57.1634 133.142 58.6477V59.777H120.134V57.3906H130.021C130.021 56.5526 129.85 55.8104 129.509 55.1641C129.169 54.5107 128.689 53.9957 128.071 53.6193C127.46 53.2429 126.743 53.0547 125.919 53.0547C125.024 53.0547 124.243 53.2749 123.575 53.7152C122.915 54.1484 122.404 54.7166 122.041 55.4197C121.686 56.1158 121.509 56.8722 121.509 57.6889V59.5533C121.509 60.647 121.7 61.5774 122.084 62.3445C122.475 63.1115 123.018 63.6974 123.714 64.1023C124.41 64.5 125.223 64.6989 126.154 64.6989C126.757 64.6989 127.308 64.6136 127.805 64.4432C128.302 64.2656 128.732 64.0028 129.094 63.6548C129.456 63.3068 129.733 62.8771 129.925 62.3658L132.94 62.9091C132.698 63.7969 132.265 64.5746 131.64 65.2422C131.022 65.9027 130.244 66.4176 129.307 66.7869C128.377 67.1491 127.315 67.3303 126.122 67.3303ZM143.537 73.4773C142.238 73.4773 141.119 73.3068 140.181 72.9659C139.251 72.625 138.491 72.174 137.902 71.6129C137.312 71.0518 136.872 70.4375 136.581 69.7699L139.319 68.6406C139.51 68.9531 139.766 69.2834 140.086 69.6314C140.412 69.9865 140.853 70.2884 141.407 70.5369C141.968 70.7855 142.689 70.9098 143.569 70.9098C144.777 70.9098 145.775 70.6151 146.563 70.0256C147.351 69.4432 147.745 68.5128 147.745 67.2344V64.017H147.543C147.351 64.3651 147.074 64.7521 146.712 65.1783C146.357 65.6044 145.867 65.9737 145.242 66.2862C144.617 66.5987 143.804 66.755 142.802 66.755C141.51 66.755 140.345 66.4531 139.308 65.8494C138.278 65.2386 137.461 64.3402 136.858 63.1541C136.261 61.9609 135.963 60.4943 135.963 58.7543C135.963 57.0142 136.257 55.5227 136.847 54.2798C137.444 53.0369 138.26 52.0852 139.297 51.4247C140.334 50.7571 141.51 50.4233 142.824 50.4233C143.839 50.4233 144.659 50.5938 145.284 50.9347C145.909 51.2685 146.396 51.6591 146.744 52.1065C147.099 52.554 147.373 52.9482 147.564 53.2891H147.799V50.6364H150.92V67.3622C150.92 68.7685 150.593 69.9226 149.94 70.8246C149.287 71.7266 148.402 72.3942 147.287 72.8274C146.179 73.2607 144.929 73.4773 143.537 73.4773ZM143.505 64.1129C144.422 64.1129 145.196 63.8999 145.828 63.4737C146.467 63.0405 146.95 62.4226 147.277 61.62C147.61 60.8104 147.777 59.8409 147.777 58.7116C147.777 57.6108 147.614 56.6413 147.287 55.8033C146.961 54.9652 146.481 54.3118 145.849 53.843C145.217 53.3672 144.436 53.1293 143.505 53.1293C142.547 53.1293 141.748 53.3778 141.108 53.875C140.469 54.3651 139.986 55.0327 139.659 55.8778C139.34 56.723 139.18 57.6676 139.18 58.7116C139.18 59.7841 139.343 60.7251 139.67 61.5348C139.997 62.3445 140.48 62.9766 141.119 63.4311C141.765 63.8857 142.561 64.1129 143.505 64.1129ZM155.192 67V50.6364H158.377V67H155.192ZM156.801 48.1115C156.247 48.1115 155.771 47.9268 155.373 47.5575C154.983 47.1811 154.787 46.7337 154.787 46.2152C154.787 45.6896 154.983 45.2422 155.373 44.8729C155.771 44.4964 156.247 44.3082 156.801 44.3082C157.355 44.3082 157.827 44.4964 158.218 44.8729C158.615 45.2422 158.814 45.6896 158.814 46.2152C158.814 46.7337 158.615 47.1811 158.218 47.5575C157.827 47.9268 157.355 48.1115 156.801 48.1115ZM176.661 50.6364L170.727 67H167.318L161.374 50.6364H164.794L168.938 63.2287H169.108L173.242 50.6364H176.661ZM186.151 67.3303C184.539 67.3303 183.15 66.9858 181.985 66.2969C180.828 65.6009 179.933 64.6243 179.301 63.3672C178.676 62.103 178.363 60.6222 178.363 58.9247C178.363 57.2486 178.676 55.7713 179.301 54.4929C179.933 53.2145 180.814 52.2166 181.943 51.4993C183.079 50.782 184.407 50.4233 185.927 50.4233C186.85 50.4233 187.745 50.576 188.612 50.8814C189.478 51.1868 190.256 51.6662 190.945 52.3196C191.634 52.973 192.177 53.8217 192.575 54.8658C192.973 55.9027 193.172 57.1634 193.172 58.6477V59.777H180.164V57.3906H190.05C190.05 56.5526 189.88 55.8104 189.539 55.1641C189.198 54.5107 188.718 53.9957 188.1 53.6193C187.49 53.2429 186.772 53.0547 185.949 53.0547C185.054 53.0547 184.272 53.2749 183.605 53.7152C182.944 54.1484 182.433 54.7166 182.071 55.4197C181.716 56.1158 181.538 56.8722 181.538 57.6889V59.5533C181.538 60.647 181.73 61.5774 182.113 62.3445C182.504 63.1115 183.047 63.6974 183.743 64.1023C184.439 64.5 185.252 64.6989 186.183 64.6989C186.787 64.6989 187.337 64.6136 187.834 64.4432C188.331 64.2656 188.761 64.0028 189.123 63.6548C189.485 63.3068 189.762 62.8771 189.954 62.3658L192.969 62.9091C192.728 63.7969 192.294 64.5746 191.669 65.2422C191.051 65.9027 190.274 66.4176 189.336 66.7869C188.406 67.1491 187.344 67.3303 186.151 67.3303ZM196.706 67V50.6364H199.785V53.2358H199.955C200.253 52.3551 200.779 51.6626 201.532 51.1584C202.292 50.647 203.151 50.3913 204.11 50.3913C204.309 50.3913 204.543 50.3984 204.813 50.4126C205.09 50.4268 205.307 50.4446 205.463 50.4659V53.5128C205.335 53.4773 205.108 53.4382 204.781 53.3956C204.454 53.3459 204.128 53.321 203.801 53.321C203.048 53.321 202.377 53.4808 201.787 53.8004C201.205 54.1129 200.743 54.5497 200.403 55.1108C200.062 55.6648 199.891 56.2969 199.891 57.0071V67H196.706Z" fill="#004225"/>
</svg>
